<svg xmlns="http://www.w3.org/2000/svg" width="213.585" height="114.333" viewBox="0 0 213.585 114.333"><defs><style>.a{fill:#6c63ff;}.b{opacity:0.2;}.c{fill:#3f3d56;}.d{fill:#2f2e41;}.e{fill:#fff;}.f{fill:#e6e6e6;}</style></defs><g transform="translate(0 0.081)"><path class="a" d="M336.141,310.786H218.361a2.4,2.4,0,0,1-.44-.035l55.7-96.488a3.9,3.9,0,0,1,6.789,0L317.8,279.015l1.791,3.1Z" transform="translate(-203.028 -212.365)"/><path class="b" d="M426.454,309.13H386.241l19.741-28.674,1.421-2.065.71-1.033,1.791,3.1Z" transform="translate(-293.341 -210.708)"/><path class="c" d="M660.416,400.126H558.547l19.74-28.674,1.421-2.066,25.723-37.367a5.205,5.205,0,0,1,7.726-.462,4.644,4.644,0,0,1,.37.462Z" transform="translate(-461.725 -301.813)"/><rect class="c" width="213.585" height="0.539" transform="translate(0 98.056)"/><ellipse class="d" cx="7.779" cy="2.442" rx="7.779" ry="2.442" transform="translate(91.454 90.403) rotate(-21.176)"/><circle class="d" cx="15.558" cy="15.558" r="15.558" transform="translate(68.45 76.441)"/><rect class="d" width="4.726" height="8.468" transform="translate(76.918 104.209)"/><rect class="d" width="4.726" height="8.468" transform="translate(86.371 104.209)"/><ellipse class="d" cx="3.939" cy="1.477" rx="3.939" ry="1.477" transform="translate(76.918 111.299)"/><ellipse class="d" cx="3.939" cy="1.477" rx="3.939" ry="1.477" transform="translate(86.371 111.102)"/><circle class="e" cx="5.317" cy="5.317" r="5.317" transform="translate(79.084 82.743)"/><circle class="c" cx="1.772" cy="1.772" r="1.772" transform="translate(82.629 86.288)"/><path class="f" d="M441.8,493.9c-1.256-5.626,2.759-11.311,8.969-12.7s12.262,2.05,13.518,7.676-2.859,7.7-9.069,9.088S443.054,499.521,441.8,493.9Z" transform="translate(-372.882 -416.365)"/><ellipse class="d" cx="7.779" cy="2.442" rx="7.779" ry="2.442" transform="translate(61.182 97.694) rotate(-45)"/><path class="e" d="M473.5,612.487c0,1.523,3.921,4.53,8.271,4.53s8.43-4.287,8.43-5.81-4.079.3-8.43.3S473.5,610.964,473.5,612.487Z" transform="translate(-397.132 -514.875)"/><ellipse class="d" cx="2.442" cy="7.779" rx="2.442" ry="7.779" transform="translate(104.415 89.339) rotate(-68.824)"/><circle class="d" cx="15.558" cy="15.558" r="15.558" transform="translate(112.576 76.441)"/><rect class="d" width="4.726" height="8.468" transform="translate(135.224 112.677) rotate(180)"/><rect class="d" width="4.726" height="8.468" transform="translate(125.771 112.677) rotate(180)"/><ellipse class="d" cx="3.939" cy="1.477" rx="3.939" ry="1.477" transform="translate(127.347 111.299)"/><ellipse class="d" cx="3.939" cy="1.477" rx="3.939" ry="1.477" transform="translate(117.893 111.102)"/><circle class="e" cx="5.317" cy="5.317" r="5.317" transform="translate(122.423 82.743)"/><circle class="c" cx="1.772" cy="1.772" r="1.772" transform="translate(125.968 86.288)"/><path class="a" d="M679.756,493.9c1.256-5.626-2.76-11.311-8.969-12.7s-12.262,2.05-13.518,7.676,2.859,7.7,9.069,9.088S678.5,499.521,679.756,493.9Z" transform="translate(-536.529 -416.365)"/><ellipse class="d" cx="2.442" cy="7.779" rx="2.442" ry="7.779" transform="translate(136.507 90.146) rotate(-45)"/><path class="e" d="M667.768,612.487c0,1.523-3.921,4.53-8.271,4.53s-8.43-4.287-8.43-5.81,4.079.3,8.43.3S667.768,610.964,667.768,612.487Z" transform="translate(-531.991 -514.875)"/><path class="e" d="M813.532,254.755l.137-8.414,5.69-10.41-5.669,9.09.062-3.783,3.921-7.532-3.905,6.53h0l.111-6.8,4.2-6-4.182,4.926.069-12.477L813.53,236.4l.036-.681-4.269-6.535,4.2,7.843-.4,7.6-.012-.2-4.922-6.877,4.907,7.59-.05.95-.009.014,0,.078-1.009,19.281h1.349l.162-9.959,4.9-7.571Z" transform="translate(-633.783 -167.058)"/></g></svg>