<svg xmlns="http://www.w3.org/2000/svg" width="176.598" height="114.249" viewBox="0 0 176.598 114.249"><defs><style>.a{fill:#3f3d56;}.b{opacity:0.1;}.c{fill:#f2f2f2;}.d{fill:#6c63ff;}.e{fill:#fff;}.f{fill:#2f2e41;}.g{fill:#fbbebe;}</style></defs><g transform="translate(0 -162)"><ellipse class="a" cx="83.42" cy="5.111" rx="83.42" ry="5.111" transform="translate(9.759 254.817)"/><ellipse class="b" cx="71.055" cy="3.38" rx="71.055" ry="3.38" transform="translate(22.123 256.465)"/><ellipse class="a" cx="34.983" cy="3.05" rx="34.983" ry="3.05" transform="translate(0 270.149)"/><ellipse class="b" cx="29.797" cy="2.017" rx="29.797" ry="2.017" transform="translate(5.185 271.133)"/><rect class="a" width="123.976" height="97.268" transform="translate(32.345 162)"/><path class="c" d="M443.728,261.368H413.144a.371.371,0,0,1,0-.742h30.585a.371.371,0,1,1,0,.742Z" transform="translate(-350.806 -86.076)"/><path class="c" d="M558.059,286.134h-48.1a.371.371,0,0,1,0-.742h48.1a.371.371,0,1,1,0,.742Z" transform="translate(-431.657 -106.759)"/><path class="c" d="M444.628,310.9H414.044a.371.371,0,0,1,0-.742h30.585a.371.371,0,1,1,0,.742Z" transform="translate(-351.558 -127.442)"/><path class="c" d="M646.806,311.35H616.222a.371.371,0,0,1,0-.742h30.585a.371.371,0,0,1,0,.742Z" transform="translate(-520.405 -127.818)"/><path class="c" d="M445.078,335.665H414.494a.371.371,0,0,1,0-.742h30.585a.371.371,0,0,1,0,.742Z" transform="translate(-351.934 -148.124)"/><path class="c" d="M445.529,360.431H414.945a.371.371,0,1,1,0-.742h30.585a.371.371,0,0,1,0,.742Z" transform="translate(-352.31 -168.807)"/><path class="c" d="M640.291,261.818h-8.76a.371.371,0,0,1,0-.742h8.76a.371.371,0,0,1,0,.742Z" transform="translate(-533.191 -86.452)"/><path class="c" d="M640.291,335.665h-8.76a.371.371,0,0,1,0-.742h8.76a.371.371,0,0,1,0,.742Z" transform="translate(-533.191 -148.124)"/><path class="c" d="M640.292,359.982h-8.76a.371.371,0,0,1,0-.742h8.76a.371.371,0,1,1,0,.742Z" transform="translate(-533.191 -168.431)"/><path class="c" d="M729.448,359.982h-8.76a.371.371,0,1,1,0-.742h8.76a.371.371,0,1,1,0,.742Z" transform="translate(-607.649 -168.431)"/><path class="c" d="M421.452,286.134h-8.76a.371.371,0,1,1,0-.742h8.76a.371.371,0,0,1,0,.742Z" transform="translate(-350.43 -106.759)"/><path class="c" d="M443.953,626.1H413.369a.371.371,0,1,1,0-.742h30.585a.371.371,0,1,1,0,.742Z" transform="translate(-350.994 -390.678)"/><path class="c" d="M443.052,675.631H412.468a.371.371,0,0,1,0-.742h30.585a.371.371,0,0,1,0,.742Z" transform="translate(-350.242 -432.043)"/><path class="c" d="M443.5,700.4H412.918a.371.371,0,1,1,0-.742H443.5a.371.371,0,0,1,0,.742Z" transform="translate(-350.618 -452.726)"/><path class="c" d="M633.312,676.081h-8.76a.371.371,0,1,1,0-.742h8.76a.371.371,0,1,1,0,.742Z" transform="translate(-527.362 -432.419)"/><path class="c" d="M633.312,700.4h-8.76a.371.371,0,0,1,0-.742h8.76a.371.371,0,1,1,0,.742Z" transform="translate(-527.362 -452.726)"/><path class="c" d="M722.468,676.081h-8.76a.371.371,0,1,1,0-.742h8.76a.371.371,0,1,1,0,.742Z" transform="translate(-601.82 -432.419)"/><path class="c" d="M558.284,650.865h-48.1a.371.371,0,1,1,0-.742h48.1a.371.371,0,0,1,0,.742Z" transform="translate(-431.845 -411.36)"/><path class="c" d="M421.677,650.865h-8.76a.371.371,0,1,1,0-.742h8.76a.371.371,0,1,1,0,.742Z" transform="translate(-350.618 -411.36)"/><path class="c" d="M558.284,725.613h-48.1a.371.371,0,1,1,0-.742h48.1a.371.371,0,0,1,0,.742Z" transform="translate(-431.845 -473.785)"/><path class="c" d="M421.677,725.613h-8.76a.371.371,0,1,1,0-.742h8.76a.371.371,0,1,1,0,.742Z" transform="translate(-350.618 -473.785)"/><path class="d" d="M458.892,401.13l-11.878,11.729,11.878,11.729,2.672-2.672-8.982-8.982,9.056-9.057Z" transform="translate(-373.319 -199.707)"/><path class="d" d="M611.414,401.13l11.878,11.729-11.878,11.729-2.672-2.672,8.982-8.982-9.057-9.057Z" transform="translate(-508.321 -199.707)"/><circle class="d" cx="1.484" cy="1.484" r="1.484" transform="translate(34.158 162.989)"/><circle class="d" cx="1.484" cy="1.484" r="1.484" transform="translate(38.115 162.989)"/><circle class="d" cx="1.484" cy="1.484" r="1.484" transform="translate(42.072 162.989)"/><rect class="b" width="123.976" height="0.495" transform="translate(32.345 166.946)"/><path class="e" d="M1010.01,499.02l.143-8.8,5.95-10.885-5.927,9.505.064-3.956,4.1-7.875-4.084,6.828h0l.115-7.116,4.392-6.27-4.374,5.151.073-13.047-.453,17.272.036-.713-4.464-6.834,4.394,8.2-.417,7.947-.012-.211-5.147-7.191,5.13,7.937-.051.994-.01.015,0,.082-1.055,20.162h1.41L1010,499.8l5.119-7.917Z" transform="translate(-848.046 -250.347)"/><path class="f" d="M135.253,768.687a7.114,7.114,0,0,1-1.348.577c-.837.229-1.732.145-2.578.34a1.061,1.061,0,0,0-.833.585,1.229,1.229,0,0,0,.091.762c.935,2.74,1.5,5.649,2.988,8.131a12.3,12.3,0,0,0,2.307,2.8,2.2,2.2,0,0,0,1.176.652,1.195,1.195,0,0,0,1.215-1.679c-.134-.3-.382-.527-.542-.81a3.092,3.092,0,0,1-.3-1.152,7.493,7.493,0,0,1,.117-3.506,11.782,11.782,0,0,1,1.188-2.052,3.582,3.582,0,0,0,.669-2.233,3.879,3.879,0,0,0-.6-1.493c-.277-.465-.825-1.716-1.382-1.871C136.841,767.578,135.757,768.429,135.253,768.687Z" transform="translate(-115.037 -509.569)"/><path class="f" d="M246.282,814.489a2.311,2.311,0,0,1-.109.782c-.174.46-.607.776-.83,1.214a2.683,2.683,0,0,0,.036,2,2.05,2.05,0,0,0,.645,1.089,2.125,2.125,0,0,0,.982.314,82.846,82.846,0,0,0,8.995.262,3.07,3.07,0,0,0,1.6-.232,1.011,1.011,0,0,0,.448-1.38c-.292-.4-.868-.392-1.359-.415a5.59,5.59,0,0,1-3.448-1.42,2.491,2.491,0,0,1-.484-.557,3.419,3.419,0,0,1-.253-.58,25.853,25.853,0,0,0-1.5-3.317,1.757,1.757,0,0,0-.644-.771,1.7,1.7,0,0,0-.7-.153c-.748-.049-2.684-.3-3.263.279C245.87,812.143,246.294,813.807,246.282,814.489Z" transform="translate(-210.828 -545.907)"/><circle class="g" cx="4.777" cy="4.777" r="4.777" transform="translate(35.28 192.622)"/><path class="g" d="M246.276,411.922a3.591,3.591,0,0,1-1.467,1.884l6.607,1.348a7,7,0,0,1-.093-2.946,1.7,1.7,0,0,0,.04-.727c-.124-.479-.664-.71-1.147-.82a15.322,15.322,0,0,1-3.393-.955A15.97,15.97,0,0,0,246.276,411.922Z" transform="translate(-210.533 -210.579)"/><path class="f" d="M214.159,421.4a5.166,5.166,0,0,1,4.5.118A10.191,10.191,0,0,1,220.9,423.3a3.573,3.573,0,0,1,1.358,2.2,6.152,6.152,0,0,1-.179,1.267,4.248,4.248,0,0,0,2.272,4.364,5.781,5.781,0,0,1,.641,2.953c.031,3.864-1.188,7.775-.318,11.54.2.884.521,1.74.7,2.63.229,1.153.217,2.338.337,3.507a15.706,15.706,0,0,0,.843,3.709,1.541,1.541,0,0,1-1.425.6,4.024,4.024,0,0,1-1.524-.517c-2.328-1.191-4.461-2.763-6.873-3.775-1.6-.67-3.3-1.087-4.843-1.861a6.343,6.343,0,0,1-3.461-3.666,8.582,8.582,0,0,1-.228-2.226,40.412,40.412,0,0,1,.6-9.413c.6-2.713,1.771-5.307,2.025-8.075a5.5,5.5,0,0,1,.588-2.617C212.117,422.849,213.654,422.574,214.159,421.4Z" transform="translate(-179.939 -219.96)"/><path class="f" d="M237.125,362.719a1.234,1.234,0,0,1,1.274-.309c.45.109.864.34,1.318.428a.771.771,0,0,0,.617-.087.9.9,0,0,0,.266-.589,11.237,11.237,0,0,0,.111-2.865.848.848,0,0,1,.026-.4c.112-.271.455-.335.736-.422a2.2,2.2,0,0,0,1.486-2.248.894.894,0,0,0-.273-.617,1.123,1.123,0,0,0-.715-.17q-1.926-.015-3.852,0a2.8,2.8,0,0,0-1.386.253,6.734,6.734,0,0,0-.8.678,7.887,7.887,0,0,1-2.546.988,2.524,2.524,0,0,0-1.116.665,1.175,1.175,0,0,0-.246,1.219,4.322,4.322,0,0,0,.311.479c.512.818.171,1.88.248,2.842A5.2,5.2,0,0,0,235.659,366C237.606,366.458,236.481,363.507,237.125,362.719Z" transform="translate(-199.786 -165.252)"/><path class="f" d="M242.359,676.751a14.255,14.255,0,0,1,.238,2.643c-.059,1.235-.5,2.426-.587,3.66-.062.922.081,1.853-.047,2.768-.082.586-.273,1.15-.391,1.73a7.154,7.154,0,0,0,1.15,5.484.9.9,0,0,0,.334.323.942.942,0,0,0,.413.055,29.665,29.665,0,0,0,4.15-.377.4.4,0,0,0,.266-.118.374.374,0,0,0,.058-.157c.255-1.308-.326-2.62-.473-3.945a12.245,12.245,0,0,1,.519-4.215,18.719,18.719,0,0,1,.572-2.016c.163-.445.359-.877.5-1.329a10.133,10.133,0,0,0,.363-2.177q.147-1.743.156-3.495a14.665,14.665,0,0,0-.275-3.3,17.585,17.585,0,0,0-1.572-3.912,2.478,2.478,0,0,0-.926.44,20.675,20.675,0,0,1-2.531,1.4c-.588.273-1.735.467-2.108,1.036s-.131,1.706-.1,2.325Q242.138,675.168,242.359,676.751Z" transform="translate(-207.716 -426.603)"/><path class="b" d="M242.359,676.751a14.255,14.255,0,0,1,.238,2.643c-.059,1.235-.5,2.426-.587,3.66-.062.922.081,1.853-.047,2.768-.082.586-.273,1.15-.391,1.73a7.154,7.154,0,0,0,1.15,5.484.9.9,0,0,0,.334.323.942.942,0,0,0,.413.055,29.665,29.665,0,0,0,4.15-.377.4.4,0,0,0,.266-.118.374.374,0,0,0,.058-.157c.255-1.308-.326-2.62-.473-3.945a12.245,12.245,0,0,1,.519-4.215,18.719,18.719,0,0,1,.572-2.016c.163-.445.359-.877.5-1.329a10.133,10.133,0,0,0,.363-2.177q.147-1.743.156-3.495a14.665,14.665,0,0,0-.275-3.3,17.585,17.585,0,0,0-1.572-3.912,2.478,2.478,0,0,0-.926.44,20.675,20.675,0,0,1-2.531,1.4c-.588.273-1.735.467-2.108,1.036s-.131,1.706-.1,2.325Q242.138,675.168,242.359,676.751Z" transform="translate(-207.716 -426.603)"/><path class="f" d="M176.091,605.518c-.634,1.708.3,3.553,1.108,5.185a90.663,90.663,0,0,1,4.76,12.582,1.543,1.543,0,0,1,.091.985,1.29,1.29,0,0,1-.465.552,10.983,10.983,0,0,1-3.293,1.357,14.868,14.868,0,0,0-3.123,1.464c-.82.508-1.589,1.1-2.356,1.681l-2.442,1.865a1.634,1.634,0,0,0-.408.4,1.6,1.6,0,0,0-.022,1.274,21.666,21.666,0,0,0,1.2,3.263,1.139,1.139,0,0,0,.434.568c.381.2.847-.067,1.138-.387s.543-.719.953-.856.861.029,1.289-.031c.692-.1,1.152-.735,1.651-1.224,2.039-2,5.442-1.855,7.685-3.623a9.753,9.753,0,0,1,1.027-.8c.379-.224.809-.347,1.2-.545a5.1,5.1,0,0,0,2.351-3.125c.4-1.277.518-2.626.807-3.934a17.1,17.1,0,0,0,.413-2.034,10.9,10.9,0,0,0-.042-1.923l-.809-10.01c-.066-.815-.132-1.631-.26-2.438-2.4.086-4.8.183-7.209.211A17.2,17.2,0,0,1,176.091,605.518Z" transform="translate(-147.906 -374.108)"/><path class="f" d="M201.33,599.833a1.284,1.284,0,0,0,1.666.226c.546-.287.971-.77,1.518-1.055a4.933,4.933,0,0,1,2.436-.345,15.838,15.838,0,0,1,3.905.436c1.307.372,2.578,1.089,3.929.946a.808.808,0,0,0,.62-.291.914.914,0,0,0,.1-.468l.044-1.18a1.066,1.066,0,0,0-.094-.6,1,1,0,0,0-.448-.343,15.452,15.452,0,0,0-6.251-1.177q-1.628-.056-3.257-.046a11.872,11.872,0,0,0-2.924.119C201.375,596.388,200.72,598.852,201.33,599.833Z" transform="translate(-174.029 -366.082)"/><path class="d" d="M212.05,423.461c-2.519-.022-4.8-1.685-7.322-1.726a1.9,1.9,0,0,0-.889.153,3.31,3.31,0,0,0-.849.808c-.745.807-1.824,1.237-2.589,2.025a3,3,0,0,0-.833,2.828,2.1,2.1,0,0,0,2.354,1.511,6.067,6.067,0,0,1,2.364-3.211,12.017,12.017,0,0,1,1.847-.97,5.114,5.114,0,0,1,3.58-.651,5.051,5.051,0,0,1,1.221.666l1.971,1.324A13.721,13.721,0,0,0,212.05,423.461Z" transform="translate(-172.675 -220.62)"/><path class="d" d="M194.794,438.57c-.335.417.147,1.022.074,1.552-.049.352-.339.621-.459.955a5.119,5.119,0,0,0-.106,1.095,4.7,4.7,0,0,1-.21.78,14.009,14.009,0,0,0-.443,2.312l-.441,3.293a12.48,12.48,0,0,0-.139,1.5,4.469,4.469,0,0,1-.075,1.119,8.266,8.266,0,0,1-.459,1.018,1.193,1.193,0,0,0-.016,1.076,1.88,1.88,0,0,0-.394,2.347,1.3,1.3,0,0,1,.2.373.959.959,0,0,1-.089.551l-.446,1.188c-.114.3-.15.767.167.837a2.8,2.8,0,0,0-.6.951,1.132,1.132,0,0,0,.16,1.073,1.366,1.366,0,0,1,.279.339.9.9,0,0,1-.032.535,1.963,1.963,0,0,0,.243,1.539,1.38,1.38,0,0,0,1.388.595,6.341,6.341,0,0,1,2.593-.354,46.317,46.317,0,0,1,5.755,1.311c2.141.683,4.213,1.686,6.45,1.9a.626.626,0,0,0,.431-.067.648.648,0,0,0,.2-.41l.691-3.242a33.365,33.365,0,0,0,.636-3.632c.079-.788.1-1.581.124-2.373l.178-6.3a6.3,6.3,0,0,0-.363-2.74l-1.025-3.272c-.585-1.867-1.927-3.523-2.4-5.421a8.014,8.014,0,0,0-1.337-3.426c-1.156-1.335-3.156-1.542-4.907-1.313a5.863,5.863,0,0,0-2.273.693,7.447,7.447,0,0,0-1.938,1.951C195.743,437.493,195.27,437.976,194.794,438.57Z" transform="translate(-165.836 -231.006)"/><path class="g" d="M236.519,552.612c.144.622.447,1.2.633,1.806.311,1.024.284,2.126.594,3.15.13.43.319.842.412,1.281a5.31,5.31,0,0,1-.5,3.053,11.926,11.926,0,0,0-1,2.964,2.271,2.271,0,0,0,.6,2.033,2.97,2.97,0,0,0,2.2.394,2.311,2.311,0,0,0,.8-.166,2.155,2.155,0,0,0,.965-1.6,23.7,23.7,0,0,0,.194-6.462l-.347-5.644a13.21,13.21,0,0,0-.473-3.239,3.089,3.089,0,0,0-.681-1.389,4.58,4.58,0,0,0-1.749-.271C236.174,548.433,236.2,551.217,236.519,552.612Z" transform="translate(-203.474 -326.511)"/><path class="f" d="M230.526,446.316a1.373,1.373,0,0,0-1.314.116,4.051,4.051,0,0,0-.985.956c-.88,1.074-1.812,2.307-1.681,3.69a9.358,9.358,0,0,0,.382,1.512c.59,2.206-.062,4.539.012,6.821a21.357,21.357,0,0,0,.616,3.9c.058.263.152.567.406.656a.882.882,0,0,0,.586-.091,4.677,4.677,0,0,1,4.28.54c.472-.252.3-1.049.189-1.574a9.044,9.044,0,0,1,.631-4.671,17.209,17.209,0,0,0,1.225-4.594,14.037,14.037,0,0,0-1.088-5.26,1.691,1.691,0,0,0-1.425-1.41A9.826,9.826,0,0,1,230.526,446.316Z" transform="translate(-195.271 -241.053)"/></g></svg>