<svg xmlns="http://www.w3.org/2000/svg" width="182.903" height="114.18" viewBox="0 0 182.903 114.18"><defs><style>.a{fill:#3f3d56;}.b{fill:#6c63ff;}.c{fill:#d0cde1;}.d{fill:#ffb9b9;}.e{fill:#2f2e41;}.f{fill:#575a89;}.g{fill:#cfcce0;}</style></defs><path class="a" d="M181.114,36.31,140.867,114.18,38.191,94.729l-.2-.037-5.82-1.1L6.016,88.634,0,87.495,8.336,70.568l1.406-2.855,1.321-2.679.119-.243L13.395,60.3l9.354-18.991.47-.955.652-1.323.15-.3.334-.679,1.9-3.852,3.411-6.925.594-1.207,2.7-5.476L43.091,0Z"/><path class="b" d="M382.1,260.344A24.3,24.3,0,1,0,347.737,294.7L382.1,329.062,416.455,294.7A24.3,24.3,0,1,0,382.1,260.344Z" transform="translate(-293.321 -229.632)"/><path class="c" d="M779.909,379.15l-.241-.241.6-.6-.6-.6.241-.241.843.842Z" transform="translate(-646.953 -313.213)"/><path class="c" d="M657.695,539.261l-.241-.241,1.431-1.431.241.241Zm2.862-2.862-.241-.241,1.431-1.431.241.241Zm2.862-2.862-.241-.241,1.431-1.431.241.241Zm2.862-2.862-.241-.241L667.471,529l.241.241Zm2.862-2.862-.241-.241,1.431-1.431.241.241Zm2.862-2.862-.241-.241,1.431-1.431.241.241Zm2.862-2.862-.241-.241,1.431-1.431.241.241Zm2.862-2.862-.241-.241,1.431-1.431.241.241Zm2.862-2.862-.241-.241,1.431-1.431.241.241Zm2.862-2.862-.241-.241,1.431-1.431.241.241Zm2.862-2.862-.241-.241,1.431-1.431.241.241Z" transform="translate(-556.222 -441.84)"/><path class="c" d="M578.661,580.4l-.843-.842.241-.241.6.6.6-.6.241.241Z" transform="translate(-479.462 -480.705)"/><path class="c" d="M485.658,539.261l-1.431-1.431.241-.241,1.431,1.431ZM482.8,536.4l-1.431-1.431.241-.241,1.431,1.431Zm-2.862-2.862-1.431-1.431.241-.241,1.431,1.431Zm-2.862-2.862-1.431-1.431.241-.241,1.431,1.431Zm-2.862-2.862-1.431-1.431.241-.241,1.431,1.431Zm-2.862-2.862-1.431-1.431.241-.241,1.431,1.431Zm-2.862-2.862-1.431-1.431.241-.241,1.431,1.431Zm-2.862-2.862-1.431-1.431.241-.241,1.431,1.431Zm-2.862-2.862-1.431-1.431.241-.241L463,516.123ZM459.9,513.5l-1.431-1.431.241-.241,1.431,1.431Zm-2.862-2.862-1.431-1.431.241-.241,1.431,1.431Z" transform="translate(-388.732 -441.84)"/><path class="c" d="M380.346,379.15l-.843-.843.843-.842.241.241-.6.6.6.6Z" transform="translate(-314.904 -313.213)"/><path class="c" d="M455.846,337.411l-.241-.241,1.431-1.431.241.241Zm2.862-2.862-.241-.241,1.431-1.431.241.241Zm2.862-2.862-.241-.241,1.431-1.431.241.241Zm2.862-2.862-.241-.241,1.431-1.431.241.241Zm2.862-2.862-.241-.241,1.431-1.431.241.241Zm2.862-2.862-.241-.241,1.431-1.431.241.241Zm2.862-2.862-.241-.241,1.431-1.431.241.241Zm2.862-2.862-.241-.241,1.431-1.431.241.241Zm2.862-2.862-.241-.241,1.431-1.431.241.241Zm2.862-2.862-.241-.241,1.431-1.431.241.241Zm2.862-2.862-.241-.241,1.431-1.431.241.241Z" transform="translate(-388.732 -274.349)"/><path class="c" d="M579.262,180.234l-.6-.6-.6.6-.241-.241.843-.842.842.842Z" transform="translate(-479.462 -148.656)"/><path class="c" d="M687.506,337.411l-1.431-1.431.241-.241,1.431,1.431Zm-2.862-2.862-1.431-1.431.241-.241,1.431,1.431Zm-2.862-2.862-1.431-1.431.241-.241,1.431,1.431Zm-2.862-2.862-1.431-1.431.241-.241,1.431,1.431Zm-2.862-2.862-1.431-1.431.241-.241,1.431,1.431ZM673.2,323.1l-1.431-1.431.241-.241,1.431,1.431Zm-2.862-2.862-1.431-1.431.241-.241L670.574,320Zm-2.862-2.862-1.431-1.431.241-.241,1.431,1.431Zm-2.862-2.862-1.431-1.431.241-.241,1.431,1.431Zm-2.862-2.862-1.431-1.431.241-.241,1.431,1.431Zm-2.862-2.862-1.431-1.431.241-.241,1.431,1.431Z" transform="translate(-556.222 -274.349)"/><path class="c" d="M424.808,301.3c-.689-.014-1.386-.058-2.072-.131l.036-.338c.677.071,1.364.115,2.044.129Zm2.076-.044-.022-.34c.678-.043,1.363-.116,2.037-.216l.05.337c-.682.1-1.377.176-2.065.219Zm-6.2-.392c-.678-.13-1.357-.291-2.021-.478l.092-.328c.654.185,1.324.343,1.992.471Zm10.307-.22-.079-.331c.663-.157,1.326-.345,1.971-.557l.106.323c-.654.215-1.327.405-2,.564Zm-14.3-.906c-.645-.243-1.288-.516-1.91-.814l.147-.307c.613.293,1.247.563,1.883.8Zm18.243-.391-.134-.313c.626-.267,1.248-.564,1.848-.883l.16.3c-.608.324-1.239.625-1.874.9Zm-21.986-1.4c-.594-.349-1.18-.728-1.744-1.126l.2-.278c.555.393,1.134.767,1.719,1.111Zm25.651-.553-.185-.286c.57-.369,1.132-.768,1.671-1.185l.208.269C439.745,296.614,439.175,297.019,438.6,297.393Zm-29.035-1.844c-.525-.444-1.04-.916-1.529-1.4l.241-.241c.482.482.99.948,1.508,1.385Zm32.316-.7-.23-.251c.247-.227.494-.464.734-.7s.48-.491.713-.744l.251.23c-.236.257-.479.51-.723.754s-.495.484-.745.715Zm-35.252-2.233c-.447-.528-.875-1.08-1.274-1.642l.278-.2c.393.554.815,1.1,1.256,1.619Zm38.06-.823-.269-.208c.417-.538.815-1.1,1.183-1.67l.286.185C445.512,290.679,445.108,291.249,444.685,291.795Zm-40.463-2.563c-.35-.595-.679-1.212-.976-1.834l.307-.147c.293.613.617,1.221.962,1.808Zm42.714-.92-.3-.16c.319-.6.616-1.221.882-1.847l.313.133c-.27.634-.572,1.265-.895,1.873Zm-44.506-2.824c-.244-.646-.462-1.309-.65-1.973l.328-.093c.185.654.4,1.309.641,1.945Zm46.132-.992-.323-.106c.212-.645.4-1.308.556-1.97l.331.078C448.968,283.168,448.779,283.841,448.563,284.5Zm-47.262-3c-.131-.676-.234-1.368-.307-2.054l.339-.036c.072.677.174,1.358.3,2.026Zm48.218-1.036-.337-.05c.1-.673.173-1.358.216-2.036l.34.022c-.044.688-.117,1.383-.219,2.065Zm-48.658-3.09q-.006-.266-.006-.532c0-.513.016-1.032.048-1.544l.34.021c-.032.5-.048,1.017-.048,1.523q0,.262.006.525Zm48.58-1.044c-.014-.679-.058-1.367-.13-2.044l.338-.036c.073.686.117,1.384.132,2.073Zm-47.983-3.048-.337-.05c.1-.682.233-1.368.391-2.039l.331.078C401.689,271.927,401.559,272.6,401.459,273.276Zm47.551-1.022c-.128-.668-.287-1.339-.472-1.993l.328-.092c.187.663.348,1.343.479,2.021Zm-46.611-2.96-.324-.106c.215-.656.461-1.31.731-1.944l.313.133C402.854,268,402.612,268.648,402.4,269.295Zm45.5-.979c-.24-.637-.51-1.271-.8-1.884l.307-.147c.3.622.571,1.265.815,1.911ZM404,265.531l-.3-.16c.323-.608.676-1.211,1.05-1.79l.286.185C404.669,264.337,404.32,264.931,404,265.531Zm42.133-.908c-.344-.586-.719-1.165-1.112-1.72l.278-.2c.4.563.779,1.15,1.128,1.745ZM406.22,262.1l-.269-.208c.421-.544.871-1.078,1.339-1.587l.251.23C407.08,261.032,406.635,261.559,406.22,262.1Zm37.547-.812c-.438-.519-.9-1.026-1.386-1.507l-.018-.018.239-.242.023.023c.485.485.958,1,1.4,1.525Zm-34.78-2.2-.231-.25c.508-.469,1.042-.92,1.586-1.342l.209.269C410.015,258.174,409.489,258.619,408.988,259.081Zm31.866-.708c-.52-.439-1.065-.86-1.619-1.252l.2-.278c.562.4,1.114.824,1.642,1.269Zm-28.632-1.8-.185-.286c.578-.375,1.181-.729,1.79-1.054l.16.3C413.386,255.852,412.792,256.2,412.222,256.571Zm25.293-.559c-.586-.344-1.195-.667-1.808-.959l.147-.307c.622.3,1.239.624,1.834.973Zm-21.681-1.364-.134-.313c.634-.271,1.288-.518,1.943-.734l.107.323C417.1,254.137,416.459,254.381,415.834,254.647Zm17.989-.4c-.636-.239-1.291-.454-1.946-.638l.092-.328c.664.187,1.328.4,1.973.647Zm-14.1-.885-.079-.331c.671-.159,1.357-.292,2.039-.394l.05.337c-.673.1-1.349.231-2.011.389Zm10.164-.223c-.668-.128-1.349-.229-2.026-.3l.036-.339c.686.072,1.377.174,2.054.3Zm-6.117-.383-.022-.34c.689-.044,1.386-.059,2.076-.045l-.007.34c-.681-.014-1.368,0-2.047.045Z" transform="translate(-343.303 -228.921)"/><path class="c" d="M626.659,301.3c-.689-.014-1.386-.058-2.073-.131l.036-.338c.677.071,1.364.115,2.044.129Zm2.076-.044-.022-.34c.678-.043,1.363-.116,2.036-.216l.05.337c-.682.1-1.377.175-2.065.219Zm-6.2-.392c-.678-.13-1.358-.291-2.021-.478l.092-.328c.654.185,1.324.343,1.992.471Zm10.307-.22-.078-.331c.663-.157,1.326-.345,1.971-.557l.106.323c-.654.215-1.326.405-2,.564Zm-14.3-.906c-.645-.243-1.288-.516-1.91-.814l.147-.307c.614.293,1.247.563,1.883.8Zm18.243-.391-.134-.313c.626-.267,1.248-.564,1.848-.883l.16.3c-.609.324-1.239.625-1.874.9Zm-21.986-1.4c-.594-.349-1.181-.728-1.743-1.126l.2-.278c.555.393,1.133.767,1.719,1.111Zm25.651-.553-.185-.286c.57-.369,1.132-.767,1.671-1.185l.208.269c-.546.424-1.117.828-1.694,1.2Zm-29.035-1.844c-.525-.443-1.039-.916-1.529-1.4l.241-.241c.483.482.99.949,1.508,1.386Zm32.317-.7-.23-.251c.247-.227.494-.464.734-.7s.482-.493.713-.744l.251.23c-.234.255-.478.508-.723.754s-.495.484-.745.714Zm-35.252-2.233c-.447-.528-.875-1.08-1.274-1.642l.278-.2c.393.554.815,1.1,1.256,1.619Zm38.06-.823-.269-.208c.417-.538.815-1.1,1.183-1.67l.286.185c-.374.578-.777,1.147-1.2,1.693Zm-40.463-2.563c-.35-.594-.678-1.211-.976-1.834l.307-.147c.294.614.617,1.222.962,1.808Zm42.714-.92-.3-.16c.319-.6.616-1.221.882-1.847l.313.133C649.411,287.072,649.11,287.7,648.787,288.311Zm-44.506-2.824c-.243-.645-.462-1.309-.65-1.973l.328-.093c.185.655.4,1.309.641,1.945Zm46.132-.992-.323-.106c.212-.645.4-1.308.556-1.97l.331.078c-.159.671-.349,1.344-.564,2Zm-47.262-3c-.131-.676-.234-1.367-.307-2.054l.338-.036c.072.677.174,1.359.3,2.026Zm48.218-1.036-.337-.05c.1-.673.173-1.358.216-2.036l.34.022c-.044.688-.117,1.383-.219,2.065Zm-48.657-3.09q-.006-.266-.006-.532c0-.512.016-1.032.049-1.544l.34.021c-.032.505-.048,1.018-.048,1.523q0,.262.006.525Zm48.58-1.044c-.015-.681-.058-1.369-.13-2.044l.339-.036c.072.684.117,1.382.131,2.072Zm-47.983-3.048-.337-.05c.1-.683.233-1.369.391-2.039l.331.078C603.539,271.926,603.41,272.6,603.31,273.276Zm47.552-1.022c-.128-.668-.287-1.339-.472-1.993l.328-.092c.187.663.348,1.343.479,2.021Zm-46.611-2.96-.323-.106c.215-.656.461-1.31.731-1.943l.313.133C604.705,268,604.462,268.648,604.25,269.294Zm45.5-.979c-.24-.636-.51-1.27-.8-1.884l.307-.147c.3.623.572,1.266.814,1.911Zm-43.9-2.785-.3-.16c.323-.609.677-1.211,1.051-1.79l.286.185C606.519,264.337,606.171,264.931,605.852,265.531Zm42.133-.908c-.345-.587-.719-1.165-1.112-1.72l.278-.2c.4.563.779,1.149,1.128,1.745Zm-39.914-2.528-.269-.208c.421-.545.872-1.079,1.339-1.587l.251.23c-.461.5-.9,1.028-1.32,1.565Zm37.547-.812c-.438-.519-.9-1.026-1.386-1.507l-.018-.018.239-.242.02.02c.488.488.961,1,1.406,1.528Zm-34.78-2.2-.231-.25c.508-.468,1.042-.92,1.586-1.342l.209.269C611.866,258.173,611.339,258.619,610.838,259.08Zm31.866-.708c-.52-.439-1.065-.86-1.619-1.252l.2-.278c.562.4,1.114.824,1.642,1.269Zm-28.632-1.8-.185-.286c.579-.375,1.181-.73,1.79-1.054l.16.3c-.6.32-1.194.669-1.765,1.039Zm25.293-.559c-.586-.344-1.194-.666-1.808-.959l.147-.307c.623.3,1.24.624,1.834.973Zm-21.681-1.364-.134-.313c.634-.271,1.288-.518,1.943-.734l.107.323c-.646.213-1.291.456-1.916.723Zm17.989-.4c-.636-.239-1.29-.453-1.945-.638l.092-.328c.665.187,1.328.4,1.973.647Zm-14.1-.885-.079-.331c.671-.16,1.357-.292,2.039-.394l.05.337c-.672.1-1.349.231-2.011.389Zm10.164-.223c-.668-.128-1.349-.229-2.025-.3l.036-.339c.686.072,1.377.174,2.054.3Zm-6.117-.383-.022-.34c.689-.044,1.387-.06,2.076-.045l-.007.34c-.68-.014-1.369,0-2.048.045Z" transform="translate(-510.794 -228.92)"/><rect class="c" width="1.021" height="0.34" transform="translate(15.351 99.355)"/><path class="c" d="M332.355,698.635h-2.043v-.34h2.043Zm-4.087,0h-2.043v-.34h2.043Zm-4.087,0h-2.043v-.34h2.043Zm-4.087,0h-2.043v-.34h2.043Zm-4.087,0h-2.043v-.34h2.043Zm-4.087,0h-2.043v-.34h2.043Zm-4.087,0h-2.043v-.34h2.043Zm-4.087,0H301.7v-.34h2.043Zm-4.087,0h-2.043v-.34h2.043Zm-4.087,0h-2.043v-.34h2.043Zm-4.087,0h-2.043v-.34h2.043Zm-4.087,0h-2.043v-.34H287.4Zm-4.087,0h-2.043v-.34h2.043Zm-4.087,0h-2.043v-.34h2.043Zm-4.087,0H273.1v-.34h2.043Zm-4.087,0h-2.043v-.34h2.043Zm-4.087,0h-2.043v-.34h2.043Zm-4.087,0h-2.043v-.34h2.043Zm-4.087,0h-2.043v-.34H258.8Zm-4.087,0h-2.043v-.34h2.043Zm-4.087,0h-2.043v-.34h2.043Zm-4.087,0h-2.043v-.34h2.043Zm-4.087,0H240.4v-.34h2.043Zm-4.087,0h-2.043v-.34h2.043Zm-4.087,0h-2.043v-.34h2.043Zm-4.087,0h-2.043v-.34h2.043Zm-4.087,0h-2.043v-.34H226.1Zm-4.087,0h-2.043v-.34h2.043Zm-4.087,0h-2.043v-.34h2.043Zm-4.087,0H211.8v-.34h2.043Zm-4.087,0h-2.043v-.34h2.043Zm-4.087,0h-2.043v-.34h2.043Zm-4.087,0h-2.043v-.34h2.043Zm-4.087,0h-2.043v-.34H197.5Zm-4.087,0h-2.043v-.34h2.043Zm-4.087,0h-2.043v-.34h2.043Zm-4.087,0h-2.043v-.34h2.043Zm-4.087,0h-2.043v-.34h2.043Zm-4.087,0h-2.043v-.34h2.043Zm-4.087,0h-2.043v-.34h2.043Z" transform="translate(-152.516 -598.94)"/><rect class="c" width="1.021" height="0.34" transform="translate(181.882 99.355)"/><path class="d" d="M194.774,549.124l.026-.078.489-1.486-6.308.383Z" transform="translate(-156.812 -454.354)"/><path class="d" d="M243.741,491.489l3.834,9.758s-.349,8.364,4.182,7.667-.7-9.061-.7-9.061l-2.788-10.107S244.786,489.049,243.741,491.489Z" transform="translate(-212.932 -425.814)"/><circle class="d" cx="6.273" cy="6.273" r="6.273" transform="translate(18.089 21.938)"/><path class="d" d="M160.631,291.6s-2.091,6.97-3.485,6.97,9.41,4.182,9.41,4.182-2.788-2.788,0-8.016Z" transform="translate(-140.974 -261.474)"/><path class="e" d="M130.031,498.948l.228-.041c1.832-.33,3-.72,3.074-1.174.145-.87-1.1-5.42-2.6-10.436-1.682-5.619-3.685-11.823-4.427-14.1-.187-.577-.294-.9-.294-.9l-.671-4.2-.723-4.516-17.076,4.531-2.439,4.181-.519,1.515v0l-.764,2.235-1.506,4.4-4.23,12.365,26.153,4.955Z" transform="translate(-92.068 -404.178)"/><path class="f" d="M128.187,326s4.833,1.283,6.25,2.732l2.463,1.45,3.137,6.622s2.439,1.046,2.439,5.576,3.485,12.2,3.485,12.2,2.44,2.091.7,3.137a8.4,8.4,0,0,1-3.834,1.046s1.743-6.622-1.743-6.97-5.228-.7-5.576,0-9.758,10.8-13.592,9.758-1.743-11.5-1.743-11.5l3.137-24.4a13.087,13.087,0,0,1,3.834,0C128.536,326,128.187,326,128.187,326Z" transform="translate(-109.924 -289.6)"/><circle class="g" cx="1.054" cy="1.054" r="1.054" transform="translate(21.734 84.243)"/><path class="g" d="M143.134,583.327l1.05.931,10.234,3.272.153-.276-5.938-3.3a1.9,1.9,0,1,1,.409-.737l5.938,3.3.153-.276-8.189-6.957-1.308-.465.367-.66-.921-.511-.716,1.29-5.435-3.017-1.841,3.316,5.435,3.017-.716,1.29.921.511Z" transform="translate(-124.435 -497.395)"/><path class="d" d="M100.426,491.489l3.834,9.758s-.349,8.364,4.182,7.667-.7-9.061-.7-9.061l-2.788-10.107S101.471,489.049,100.426,491.489Z" transform="translate(-94.012 -425.814)"/><path class="f" d="M89.624,323.086l-.7-.349s-2.091-2.091-4.531.7-4.879,17.425-4.879,17.425v4.53s-2.788,3.834-.349,5.924,2.788,2.44,2.788,2.44,2.44-3.485,5.228-1.742l.349-1.394a4.314,4.314,0,0,0,.7-1.046c.348-.7,1.045.348.7-.7a2.721,2.721,0,0,1,0-1.742c0-.349.349-2.091.349-2.091l-.349-10.8Z" transform="translate(-75.543 -286.685)"/><path class="e" d="M110.235,213.019s5.1-11.111-8.222-11.1c0,0-8.171-4.293-14.393,5.662L81.2,218.049l1.641-.326.208,1.633,2.093,1.284,1.574-1.627-.26,2.491,18.037,7.66s-6.8-7.53-4.177-16.409l1.065,2.173Z" transform="translate(-78.057 -186.295)"/><ellipse class="d" cx="0.881" cy="1.761" rx="0.881" ry="1.761" transform="translate(20.316 28.227)"/></svg>