<?xml version="1.0" encoding="utf-8"?>
<!-- Generator: Adobe Illustrator 24.1.2, SVG Export Plug-In . SVG Version: 6.00 Build 0)  -->
<svg version="1.1" id="Layer_1" xmlns="http://www.w3.org/2000/svg" xmlns:xlink="http://www.w3.org/1999/xlink" x="0px" y="0px"
	 viewBox="0 0 233.15 233.15" style="enable-background:new 0 0 233.15 233.15;" xml:space="preserve">
<style type="text/css">
	.st0{opacity:0.81;}
	.st1{fill:#CCCCCC;}
</style>
<g class="st0">
	<circle class="st1" cx="103.64" cy="15.61" r="6"/>
	<circle class="st1" cx="126.55" cy="33.39" r="6"/>
	<circle class="st1" cx="149.46" cy="51.17" r="6"/>
	<circle class="st1" cx="172.37" cy="68.95" r="6"/>
	<circle class="st1" cx="195.28" cy="86.72" r="6"/>
	<circle class="st1" cx="218.19" cy="104.5" r="6"/>
	<circle class="st1" cx="88.92" cy="34.57" r="6"/>
	<circle class="st1" cx="111.84" cy="52.35" r="6"/>
	<circle class="st1" cx="134.75" cy="70.13" r="6"/>
	<circle class="st1" cx="157.66" cy="87.91" r="6"/>
	<circle class="st1" cx="180.57" cy="105.68" r="6"/>
	<circle class="st1" cx="203.48" cy="123.46" r="6"/>
	<circle class="st1" cx="74.21" cy="53.53" r="6"/>
	<circle class="st1" cx="97.12" cy="71.31" r="6"/>
	<circle class="st1" cx="120.03" cy="89.09" r="6"/>
	<circle class="st1" cx="142.94" cy="106.87" r="6"/>
	<circle class="st1" cx="165.85" cy="124.65" r="6"/>
	<circle class="st1" cx="188.76" cy="142.42" r="6"/>
	<circle class="st1" cx="59.5" cy="72.49" r="6"/>
	<circle class="st1" cx="82.41" cy="90.27" r="6"/>
	<circle class="st1" cx="105.32" cy="108.05" r="6"/>
	<circle class="st1" cx="128.23" cy="125.83" r="6"/>
	<circle class="st1" cx="151.14" cy="143.61" r="6"/>
	<circle class="st1" cx="174.05" cy="161.39" r="6"/>
	<circle class="st1" cx="44.78" cy="91.45" r="6"/>
	<circle class="st1" cx="67.69" cy="109.23" r="6"/>
	<circle class="st1" cx="90.6" cy="127.01" r="6"/>
	<circle class="st1" cx="113.51" cy="144.79" r="6"/>
	<circle class="st1" cx="136.42" cy="162.57" r="6"/>
	<circle class="st1" cx="159.33" cy="180.35" r="6"/>
	<circle class="st1" cx="30.07" cy="110.41" r="6"/>
	<circle class="st1" cx="52.98" cy="128.19" r="6"/>
	<circle class="st1" cx="75.89" cy="145.97" r="6"/>
	<circle class="st1" cx="98.8" cy="163.75" r="6"/>
	<circle class="st1" cx="121.71" cy="181.53" r="6"/>
	<circle class="st1" cx="144.62" cy="199.31" r="6"/>
	<circle class="st1" cx="15.35" cy="129.37" r="6"/>
	<circle class="st1" cx="38.26" cy="147.15" r="6"/>
	<circle class="st1" cx="61.17" cy="164.93" r="6"/>
	<circle class="st1" cx="84.09" cy="182.71" r="6"/>
	<circle class="st1" cx="107" cy="200.49" r="6"/>
	<circle class="st1" cx="129.91" cy="218.27" r="6"/>
</g>
</svg>
