<svg xmlns="http://www.w3.org/2000/svg" width="16.196" height="22.999" viewBox="0 0 16.196 22.999"><defs><style>.a{fill:#fff;}</style></defs><path class="a" d="M83.824,0a8.171,8.171,0,0,0-8.1,8.225v6.55a8.1,8.1,0,1,0,16.2.025V8.225A8.171,8.171,0,0,0,83.824,0ZM90.4,14.8a6.576,6.576,0,1,1-13.149-.025V8.225a6.576,6.576,0,1,1,13.149,0Z" transform="translate(-75.726)"/><g transform="translate(7.336 6.295)"><path class="a" d="M239.808,140.15a.762.762,0,0,0-.762.762v2.665a.762.762,0,1,0,1.523,0v-2.665A.762.762,0,0,0,239.808,140.15Z" transform="translate(-239.046 -140.15)"/></g></svg>