<svg id="SvgjsSvg1012" width="288" height="288" xmlns="http://www.w3.org/2000/svg" version="1.1" xmlns:xlink="http://www.w3.org/1999/xlink" xmlns:svgjs="http://svgjs.com/svgjs"><defs id="SvgjsDefs1013"></defs><g id="SvgjsG1014" transform="matrix(0.9167,0,0,0.9167,12.010756229877472,11.98311351776124)"><svg xmlns="http://www.w3.org/2000/svg" width="288" height="288" enable-background="new 0 0 512 512" viewBox="0 0 512 512"><path d="M179.743,390.729c-2.015,0-4.041-0.673-5.717-2.053L21.06,262.689c-2.076-1.71-3.278-4.258-3.278-6.947
				s1.203-5.237,3.278-6.947l152.966-125.987c3.836-3.159,9.508-2.612,12.669,1.226c3.16,3.837,2.611,9.509-1.226,12.669
				L40.938,255.742l144.532,119.04c3.837,3.16,4.385,8.832,1.226,12.669C184.915,389.611,182.339,390.729,179.743,390.729z" fill="#ffffff" class="color000 svgShape"></path><path d="M485.883,264.742H26.781c-4.971,0-9-4.029-9-9s4.029-9,9-9h459.102c4.971,0,9,4.029,9,9S490.854,264.742,485.883,264.742
				z" fill="#ffffff" class="color000 svgShape"></path></svg></g></svg>